
<svg width="36" height="36" viewBox="0 0 36 36" fill="none" xmlns="http://www.w3.org/2000/svg">
<circle cx="18" cy="18" r="18" fill="#F8F8F8"/>
<path fill-rule="evenodd" clip-rule="evenodd" d="M23.0867 11.6188C21.5475 13.1572 18.9154 12.068 18.9154 9.89046V8.2H17.0846V9.89088C17.0846 12.0684 14.4525 13.1576 12.9133 11.6192L11.7177 10.4233L10.4232 11.7177L11.6183 12.9129C11.6184 12.9129 11.6183 12.9128 11.6183 12.9129C13.1584 14.4525 12.0668 17.0846 9.89046 17.0846H8.2V18.9154H9.89046C12.0677 18.9154 13.1575 21.5479 11.6186 23.0869L10.4232 24.2823L11.7177 25.5768L12.9131 24.3814C14.4529 22.8416 17.0846 23.9329 17.0846 26.1095V27.8H18.9154V26.1095C18.9154 23.9329 21.5471 22.8416 23.0869 24.3814L24.2823 25.5768L25.5768 24.2823L24.3817 23.0871C24.3816 23.0871 24.3817 23.0872 24.3817 23.0871C22.8416 21.5475 23.9332 18.9154 26.1095 18.9154H27.8V17.0846H26.1095C23.9323 17.0846 22.8425 14.4521 24.3814 12.9131L25.5768 11.7177L24.2823 10.4232L23.0867 11.6188ZM25.23 22.2384L26.7412 23.7496C27.0352 24.0437 27.0352 24.5209 26.7412 24.8149L24.8149 26.7412C24.5209 27.0352 24.0437 27.0352 23.7496 26.7412L22.2384 25.23C21.4548 24.4464 20.1154 25.0015 20.1154 26.1095V28.2465C20.1154 28.6628 19.7782 29 19.3623 29H16.6381C16.2218 29 15.8846 28.6628 15.8846 28.2465V26.1095C15.8846 25.0015 14.5452 24.4464 13.7616 25.23L12.2504 26.7412C11.9563 27.0352 11.4791 27.0352 11.1851 26.7412L9.25881 24.8149C8.96477 24.5209 8.96477 24.0441 9.25881 23.7496L10.77 22.2384C11.5532 21.4553 10.9985 20.1154 9.89046 20.1154H7.7535C7.33719 20.1154 7 19.7782 7 19.3623V16.6381C7 16.2218 7.33719 15.8846 7.7535 15.8846H9.89046C10.9985 15.8846 11.5536 14.5447 10.77 13.7616L9.25881 12.2504C8.96477 11.9563 8.96477 11.4791 9.25881 11.1851L11.1851 9.25881C11.4791 8.96477 11.9563 8.96477 12.2504 9.25881L13.7616 10.7705C14.5452 11.5536 15.8846 10.9989 15.8846 9.89088V7.7535C15.8846 7.33719 16.2218 7 16.6377 7H19.3619C19.7782 7 20.1154 7.33719 20.1154 7.7535V9.89046C20.1154 10.9985 21.4548 11.5532 22.2384 10.77L23.7496 9.25881C24.0437 8.96477 24.5209 8.96477 24.8149 9.25881L26.7412 11.1851C27.0352 11.4791 27.0352 11.9563 26.7412 12.2504L25.23 13.7616C24.4468 14.5447 25.0015 15.8846 26.1095 15.8846H28.2465C28.6628 15.8846 29 16.2218 29 16.6377V19.3619C29 19.7782 28.6628 20.1154 28.2465 20.1154H26.1095C25.0015 20.1154 24.4464 21.4553 25.23 22.2384ZM11.4019 25.8927C11.4017 25.8928 11.402 25.8925 11.4019 25.8927V25.8927ZM18 22.5846C15.4681 22.5846 13.4154 20.5319 13.4154 18C13.4154 15.4681 15.4681 13.4154 18 13.4154C20.5319 13.4154 22.5846 15.4681 22.5846 18C22.5846 20.5319 20.5319 22.5846 18 22.5846ZM14.6154 18C14.6154 19.8692 16.1308 21.3846 18 21.3846C19.8692 21.3846 21.3846 19.8692 21.3846 18C21.3846 16.1308 19.8692 14.6154 18 14.6154C16.1308 14.6154 14.6154 16.1308 14.6154 18Z" fill="#BB162B"/>
</svg>
